<?xml version="1.0" encoding="UTF-8" standalone="no"?>
<!-- Created with Inkscape (http://www.inkscape.org/) -->

<svg
   width="250"
   height="150"
   viewBox="0 0 66.145833 39.687501"
   version="1.1"
   id="svg5"
   inkscape:version="1.1.1 (3bf5ae0d25, 2021-09-20)"
   sodipodi:docname="claw.svg"
   xmlns:inkscape="http://www.inkscape.org/namespaces/inkscape"
   xmlns:sodipodi="http://sodipodi.sourceforge.net/DTD/sodipodi-0.dtd"
   xmlns="http://www.w3.org/2000/svg"
   xmlns:svg="http://www.w3.org/2000/svg">
  <sodipodi:namedview
     id="namedview7"
     pagecolor="#ffffff"
     bordercolor="#666666"
     borderopacity="1.0"
     inkscape:pageshadow="2"
     inkscape:pageopacity="0.0"
     inkscape:pagecheckerboard="0"
     inkscape:document-units="mm"
     showgrid="false"
     units="px"
     inkscape:zoom="2.9647587"
     inkscape:cx="124.96801"
     inkscape:cy="83.14336"
     inkscape:window-width="1920"
     inkscape:window-height="1017"
     inkscape:window-x="1912"
     inkscape:window-y="-8"
     inkscape:window-maximized="1"
     inkscape:current-layer="layer1" />
  <defs
     id="defs2" />
  <g
     inkscape:label="Layer 1"
     inkscape:groupmode="layer"
     id="layer1">
    <g
       id="g14181"
       transform="matrix(0.60671363,0,0,0.60671363,-43.670425,-111.72293)">
      <path
         style="fill:#099fdf;fill-opacity:0.559441;stroke:none;stroke-width:0.264583px;stroke-linecap:butt;stroke-linejoin:miter;stroke-opacity:1"
         d="m 121.74154,191.54922 16.03303,-7.26932 -11.98979,16.02846 -15.77604,9.33942 -37.420784,15.83915 z"
         id="path8596" />
      <path
         style="fill:#099fdf;fill-opacity:0.559441;stroke:none;stroke-width:0.373182px;stroke-linecap:butt;stroke-linejoin:miter;stroke-opacity:1"
         d="m 148.32551,195.66729 22.61387,-10.25305 -16.91106,22.60742 -22.25139,13.17283 -52.780333,22.34041 z"
         id="path8596-6" />
      <path
         style="fill:#099fdf;fill-opacity:0.559441;stroke:none;stroke-width:0.278576px;stroke-linecap:butt;stroke-linejoin:miter;stroke-opacity:1"
         d="m 163.89592,215.25889 17.43373,-7.41109 -13.03726,16.34106 -17.15429,9.52157 -40.69,16.14806 z"
         id="path8596-1" />
      <g
         id="g8491"
         style="display:inline"
         sodipodi:insensitive="true">
        <path
           id="path1915"
           style="fill:none;stroke:#000000;stroke-width:0.389573px;stroke-linecap:butt;stroke-linejoin:miter;stroke-opacity:1"
           d="m 161.15745,213.31038 8.41022,-4.65281 3.54734,1.92618 m 0,0 -7.81839,4.53337 -4.13917,-1.80674 -0.13151,-0.91985 -3.08794,0.39419 -4.10627,6.83288 2.43092,12.2204 2.23381,0.72267 c 0,0 5.42033,-5.02609 5.4532,-5.48599 0.0326,-0.45992 -0.39421,-3.51503 -0.39421,-3.51503 0,0 8.11407,-4.53331 8.3112,-4.56618 0.19704,-0.0326 3.84346,1.57682 3.84346,1.57682 l 0.42706,1.54393 -12.81168,14.81558 -7.19423,-0.0983 -4.63191,2.23387 -7.22712,-2.06959 -0.68987,0.88697 c 0,0 -8.04835,4.27058 -8.67252,4.07344 -0.62417,-0.19708 -1.14974,0.16447 -2.20098,-0.49277 -1.05119,-0.65701 -1.1169,-0.62414 -1.1169,-0.62414 l -3.94206,2.00386 -1.93818,3.94206 c 0,0 -0.22999,0.82127 -1.34685,0.52562 -1.11692,-0.29569 -2.39811,-1.54396 -2.39811,-1.54396 l -0.55843,-0.29567 -0.68987,0.55846 -1.77393,-0.49275 -19.480343,-17.34506 2.135303,-5.25605 1.54396,-13.79723 c 0,0 -2.03674,-0.91978 -1.90532,-0.91978 0.13137,0 -0.5256,-2.10246 -0.5256,-2.10246 0,0 -1.504176,-0.93328 -1.872499,-1.95456 l -0.36134,-1.00198 0.08171,-0.95266 c 0,0 -1.26474,-0.657 -2.151727,-1.59324 -0.886943,-0.93621 -1.626108,-1.70823 -2.003861,-2.44738 -0.377797,-0.73909 -0.886972,-1.70822 -0.821276,-2.57875 0.06583,-0.8705 0.08228,-2.75943 0.624185,-3.8106 0.541974,-1.05124 0.72268,-2.13536 3.038641,-3.33436 2.315947,-1.19904 2.28312,-1.41255 4.845457,-1.77393 2.56236,-0.36135 4.74689,-1.26474 8.77105,0 4.02417,1.26473 6.15948,2.28311 7.04648,3.07153 0.88693,0.78839 2.4553,1.94174 2.82512,3.18649 l 0.6734,2.26669 -0.18071,3.33428 c 0,0 -0.50917,2.08603 -1.90529,3.08797 -1.39613,1.00191 -2.18458,1.52757 -2.9237,1.79033 -0.73911,0.26282 -0.91977,0.36137 -0.91977,0.36137 0,0 0.19704,0.42709 -0.39424,1.44543 -0.59132,1.01835 -1.28114,1.69179 -1.88891,1.95461 -0.60775,0.26278 -0.96911,0.34491 -0.96911,0.34491 l -0.4106,0.98549 -1.8068,1.14982 -0.72268,7.99905 -0.62414,6.70151 15.17692,11.59622 4.13912,-2.13529 c 0,0 -0.13137,-1.05122 0.19706,-1.90536 0.32847,-0.85409 0.32847,-1.21542 1.01832,-1.64251 0.6899,-0.42702 4.40196,-2.56235 4.40196,-2.56235 l 3.48221,-2.0367 c 0,0 1.14973,-0.42703 2.10241,-0.13137 0.95263,0.29562 0.95263,0.3285 0.95263,0.3285 l 1.18266,-0.5913 -0.88697,-5.81454 c 0,0 -0.36139,-0.75555 0.55847,-1.24832 0.91978,-0.49274 4.86185,-2.66088 4.86185,-2.66088 l 1.31403,0.52561 6.86573,-8.04839 15.40686,-0.72271 3.4822,1.70825 z m -45.13649,23.22528 c 0,0 0,2.8908 1.47827,4.76328 1.47824,1.87251 2.16811,2.31599 2.16811,2.31599 m 8.50827,-15.02902 -2.36522,1.34678 c 0,0 -0.53054,1.39863 -0.49276,3.44934 0.0559,3.04358 2.52948,4.53334 2.52948,4.53334 0.93997,0.72642 2.06954,1.11693 2.06954,1.11693 l 1.05125,-0.0658 c 0,0 -0.29568,0.0983 0.52562,0.42711 l 0.82126,0.32861 m -1.34688,-0.75564 -1.60967,-10.97196 m 14.81556,11.56329 -4.53336,-0.16429 -2.7266,-0.88694 m 7.39134,-3.94206 -5.8145,-1.80677 m 3.38363,-10.41363 -2.43095,3.97491 m 1.24829,-1.60965 c 0.0326,0.5913 0.32851,2.10244 0.32851,2.10244 l -3.71209,-1.21546 -1.21547,-6.43871 -0.88696,-0.36125 m 7.22708,15.04541 c -0.1641,-0.39419 -0.49275,-2.36526 -0.49275,-2.36526 l -3.64644,-1.314 0.88702,6.27441 c 0,0 0.29563,0.72275 -0.32851,1.05122 -0.62419,0.32852 -3.87636,2.13533 -3.87636,2.13533 l 3.61353,1.05118 2.33237,-1.18262 m -31.47072,8.70542 3.02223,-5.71602 c 0,0 0.64878,-1.37152 -0.36137,-2.06957 -1.01016,-0.69805 -1.158,-0.9116 -1.158,-0.9116 l -18.91849,-14.5506 c 0,0 -1.06855,-0.6969 -1.44018,-0.55749 -0.37166,0.13952 -0.95304,1.26988 -0.95304,1.26988 m 0.99946,4.1192 0.69688,-1.71894 -0.51101,-1.2079 -1.48666,0.60395 -0.55751,1.53308 0.55751,1.34728 z m 15.65623,15.28454 -0.37164,-1.95123 0.92913,-1.90478 1.626,-0.32516 0.51104,1.90472 -0.88268,2.09059 z m -19.69432,-40.13241 0.553794,-5.81417 c 0,0 0,-1.62598 2.787446,-2.74095 2.78746,-1.115 5.43558,-1.53314 7.89779,-0.65041 2.46225,0.88269 3.25206,1.06849 4.27415,2.13701 1.02204,1.06858 1.90472,2.04413 1.8118,2.78747 -0.0931,0.74333 -0.40701,5.84144 -0.40701,5.84144 m -5.46961,5.88011 c 0.16228,-0.94352 0.48756,-5.54283 0.48756,-5.54283 0,0 0.23232,-0.69684 -0.51105,-0.92913 -0.7433,-0.23234 -1.11497,-0.27876 -1.11497,-0.27876 m -5.7273,6.24154 4.28709,-2.61785 2.27644,-6.13239 -1.95123,-0.69685 -7.47967,5.15678 0.43644,1.26806 m 11.51409,1.39616 1.61508,-4.89419 -1.95123,-0.97558 -1.95117,1.44018 m 1.95117,-1.44018 -1.44018,4.18114 m -4.27406,3.34498 c 0,0.37165 -1.16147,12.58998 -1.16147,12.58998 l -1.02205,0.4646" />
        <path
           style="fill:#099fdf;fill-opacity:1;stroke-width:0.590297;stroke-linecap:round;stroke-linejoin:bevel"
           d="m 452.48203,928.14413 c -2.17482,-0.62941 -2.87372,-0.9445 -3.57756,-1.61292 -0.4811,-0.45688 -16.5981,-14.81251 -35.81556,-31.90139 -19.21746,-17.08888 -35.25293,-31.3705 -35.63439,-31.73693 l -0.69357,-0.66624 1.99747,-4.93029 c 1.09861,-2.71166 2.03185,-4.82714 2.07388,-4.70105 0.042,0.12608 -0.12679,0.74658 -0.37516,1.37887 l -0.45157,1.14962 1.20711,2.9378 c 0.66391,1.6158 1.3223,2.93781 1.46308,2.93781 0.39451,0 5.21509,-2.14909 5.52709,-2.46406 0.15185,-0.15331 0.87533,-1.76012 1.60773,-3.5707 l 1.33162,-3.29196 -1.10947,-2.67064 c -0.61022,-1.46885 -1.12899,-2.69848 -1.15284,-2.73251 -0.0238,-0.034 -1.47802,0.5248 -3.23149,1.24184 -1.75347,0.71704 -3.22916,1.26266 -3.27933,1.2125 -0.0502,-0.0502 0.46817,-1.4676 1.15184,-3.14987 1.25693,-3.09283 2.75713,-5.69332 3.87691,-6.72034 0.56195,-0.5154 0.68619,-0.5376 1.52438,-0.27243 0.50192,0.15879 1.50287,0.61363 2.22435,1.01076 0.72147,0.39712 17.46445,13.16209 37.20662,28.3666 41.06148,31.62367 40.69967,31.3418 41.33855,32.2052 0.584,0.78922 0.798,2.88006 0.44004,4.29932 -0.14112,0.5595 -2.83476,5.90065 -5.98587,11.86921 -4.82321,9.13569 -5.89055,10.99226 -6.7489,11.73921 -0.62051,0.53998 -1.25299,0.88092 -1.61586,0.87104 -0.32795,-0.009 -1.81254,-0.36823 -3.2991,-0.79845 z m -1.56631,-11.93797 c 1.80908,-0.20058 3.31829,-0.39375 3.35381,-0.42926 0.16295,-0.16295 3.48821,-8.18154 3.49334,-8.42389 0.0157,-0.74316 -2.08364,-7.95309 -2.31315,-7.94418 -1.12281,0.0436 -6.94758,1.43458 -7.02891,1.67859 -0.0555,0.16654 -0.88514,1.88759 -1.84361,3.82455 l -1.74267,3.52176 0.76284,4.0683 c 0.89034,4.74823 0.20518,4.27103 5.31835,3.70413 z"
           id="path4467"
           transform="scale(0.26458333)" />
        <path
           style="fill:#099fdf;fill-opacity:1;stroke-width:0.590297;stroke-linecap:round;stroke-linejoin:bevel"
           d="m 425.31421,782.94898 c 0.48877,-1.29373 5.6625,-17.12572 5.6625,-17.32764 0,-0.14266 -1.83176,-1.17646 -4.07059,-2.29734 l -4.07059,-2.03795 -3.62116,2.67267 c -1.99164,1.46997 -3.73394,2.7575 -3.87178,2.86116 -0.20214,0.15203 -2.90792,-0.3754 -3.15511,-0.61501 -0.0367,-0.0356 0.68367,-2.09048 1.60075,-4.56652 0.91707,-2.47604 1.59103,-4.57678 1.49769,-4.66832 -0.19809,-0.19424 -7.6871,-2.88788 -8.04036,-2.89195 -0.16927,-0.002 -28.00788,19.02297 -28.9641,19.79408 -0.0578,0.0466 0.13154,0.74251 0.42079,1.5464 0.28925,0.8039 0.47528,1.51226 0.41341,1.57412 -0.17648,0.17648 -3.2107,-2.81777 -3.97193,-3.91961 -0.37681,-0.5454 -1.04377,-1.99432 -1.48214,-3.21981 l -0.79704,-2.22816 1.24576,-13.05444 c 0.68517,-7.17994 1.35875,-13.37855 1.49684,-13.77469 0.4785,-1.37264 2.0392,-3.40911 3.59813,-4.69503 3.08748,-2.54678 10.35522,-5.49208 16.98636,-6.88384 4.04428,-0.84882 9.60876,-1.0557 13.10498,-0.48723 3.95354,0.64284 14.17694,4.24488 17.50627,6.16803 2.61338,1.5096 8.30593,7.53553 9.69994,10.26801 0.80531,1.57853 0.88955,2.1664 0.66297,4.62644 -0.20171,2.18989 -1.31438,19.59459 -1.38296,21.63241 -0.0629,1.86804 -2.18478,5.55325 -4.78783,8.3152 -1.18608,1.25847 -1.97087,1.83793 -3.47573,2.56632 -2.10331,1.01806 -2.37701,1.09784 -2.20507,0.6427 z"
           id="path4734"
           transform="scale(0.26458333)" />
        <path
           style="fill:#099fdf;fill-opacity:1;stroke-width:0.590297;stroke-linecap:round;stroke-linejoin:bevel"
           d="m 469.0181,933.62066 c -1.6261,-0.66834 -4.80765,-2.76221 -6.49516,-4.27467 -0.62533,-0.56047 -1.49263,-1.20194 -1.92732,-1.42549 -0.43469,-0.22355 -0.75667,-0.48743 -0.71551,-0.5864 0.0412,-0.099 2.57943,-4.92061 5.64061,-10.71476 3.06117,-5.79415 5.71623,-11.10005 5.90014,-11.7909 0.42391,-1.59242 0.42642,-2.68201 0.009,-4.06779 -0.45174,-1.50103 -0.98855,-2.11564 -3.42065,-3.91645 -1.1506,-0.85194 -2.41399,-1.84852 -2.80753,-2.21462 -0.39353,-0.36609 -16.38522,-12.70945 -35.53709,-27.42968 -19.15187,-14.72022 -34.91999,-26.85608 -35.04027,-26.96856 -0.12616,-0.11798 0.4541,-0.50637 1.37139,-0.91793 0.87455,-0.39239 1.59009,-0.82601 1.59009,-0.96361 0,-0.13761 0.5351,-5.91091 1.18911,-12.82957 1.86201,-19.698 3.10396,-33.36407 3.10396,-34.155 0,-0.61231 -0.0916,-0.7245 -0.59171,-0.7245 -0.42481,0 -0.62011,0.15137 -0.69236,0.53663 -0.0554,0.29515 -0.65663,6.70793 -1.33617,14.25062 -0.67954,7.54269 -1.63008,17.89083 -2.1123,22.99587 l -0.87678,9.2819 -1.54469,0.68976 -1.54469,0.68976 -1.78284,-0.89306 c -1.14106,-0.57157 -2.22748,-0.92993 -3.018,-0.99548 -1.19186,-0.0988 -1.26949,-0.067 -2.21544,0.9077 -0.86695,0.89333 -0.98029,0.94905 -0.98029,0.48188 0,-0.78071 5.24965,-47.51828 5.35682,-47.69168 0.0503,-0.0814 3.68364,-2.33636 8.07407,-5.01104 l 7.98261,-4.86304 2.48258,-6.69773 c 2.82888,-7.63201 2.23558,-6.96316 5.37273,-6.05683 2.13609,0.61712 2.58518,1.06879 2.5303,2.54483 -0.0654,1.75936 -1.0189,13.42032 -1.39716,17.08711 -0.18945,1.83649 -1.20623,12.73016 -2.2595,24.20816 -1.05328,11.478 -2.23785,24.29557 -2.63238,28.48347 -0.39452,4.18791 -0.6342,7.6918 -0.53261,7.78643 0.34109,0.31772 57.09078,43.63918 57.50369,43.89704 0.32965,0.20587 1.78015,-0.45552 7.55858,-3.44652 3.93285,-2.03571 7.30892,-3.73642 7.50237,-3.77937 0.27371,-0.0608 0.38687,0.3001 0.51011,1.62676 0.3917,4.21649 1.96087,9.59359 3.67999,12.61024 1.26257,2.21554 4.03413,5.69934 6.87625,8.64332 1.17266,1.2147 2.08848,2.246 2.03513,2.29178 -0.0533,0.0458 -3.19579,1.66943 -6.98322,3.60813 l -6.88625,3.5249 -3.90026,7.8973 c -2.29769,4.65237 -4.15311,8.11779 -4.51563,8.43393 -0.84889,0.74029 -2.63019,0.71554 -4.52407,-0.0628 z"
           id="path4773"
           transform="scale(0.26458333)" />
        <path
           style="fill:#099fdf;fill-opacity:1;stroke-width:0.590297;stroke-linecap:round;stroke-linejoin:bevel"
           d="m 506.69088,913.49032 c -1.75582,-0.11502 -2.42174,-0.27595 -3.57756,-0.86459 -5.62641,-2.86542 -7.32336,-4.20331 -11.18055,-8.81486 -3.42237,-4.09169 -4.26496,-5.48584 -5.59458,-9.25671 -1.47562,-4.18498 -2.33149,-10.81516 -1.90406,-14.75018 0.1956,-1.80072 1.45028,-5.72286 2.28763,-7.1511 0.58014,-0.98953 2.06152,-1.92971 13.25643,-8.41339 5.35328,-3.10043 11.67122,-6.77563 14.03987,-8.16712 2.36864,-1.39148 4.80393,-2.68567 5.41176,-2.87597 1.68793,-0.52846 5.10521,-0.51485 6.88106,0.0274 0.81557,0.24903 1.43457,0.53089 1.37557,0.62636 -0.059,0.0955 -1.77528,1.1214 -3.81396,2.27987 l -3.70668,2.10629 -0.46373,1.50137 c -1.04174,3.37276 -1.3021,5.47546 -1.30799,10.56337 -0.006,5.56338 0.18196,6.61152 1.79756,10.00009 2.46319,5.16633 6.71801,9.17859 12.94304,12.20516 2.37959,1.15695 2.64624,1.2326 4.20602,1.19324 1.53175,-0.0387 1.84377,0.0448 3.889,1.03971 1.223,0.59495 2.35284,1.08173 2.51076,1.08173 0.47916,0 0.33087,0.35976 -0.66259,1.6075 -0.85685,1.07616 -1.49234,1.47329 -6.49923,4.06149 -11.49847,5.94386 -19.57984,9.85078 -23.6072,11.41286 -2.168,0.84089 -2.26842,0.85028 -6.28057,0.58748 z"
           id="path4812"
           transform="scale(0.26458333)" />
        <path
           style="fill:#099fdf;fill-opacity:1;stroke-width:0.590297;stroke-linecap:round;stroke-linejoin:bevel"
           d="m 535.91847,892.31716 c -3.50411,-1.372 -8.1255,-4.41677 -10.54049,-6.94451 -3.95012,-4.13455 -5.93156,-9.01908 -5.90885,-14.56619 0.0134,-3.27392 0.86023,-9.01264 1.62736,-11.02814 0.1825,-0.47951 1.36524,-1.26347 5.08523,-3.37066 4.67695,-2.64927 7.33693,-4.07177 7.36527,-3.93879 0.0609,0.28595 5.86522,39.66239 5.84985,39.68557 -0.0842,0.12701 -3.19759,0.27266 -3.47837,0.16272 z"
           id="path4851"
           transform="scale(0.26458333)" />
        <path
           style="fill:#099fdf;fill-opacity:1;stroke-width:0.590297;stroke-linecap:round;stroke-linejoin:bevel"
           d="m 568.11651,842.94088 c -1.7709,-0.59791 -3.2594,-1.12094 -3.3078,-1.16231 -0.0484,-0.0414 -1.09563,-5.41985 -2.32719,-11.95218 -1.23156,-6.53232 -2.28166,-11.99279 -2.33356,-12.13436 -0.0519,-0.14157 -0.64974,-0.46843 -1.32853,-0.72635 -0.6788,-0.25793 -1.23806,-0.55499 -1.2428,-0.66015 -0.005,-0.10516 5.61093,-6.78138 12.47929,-14.83603 11.37511,-13.33981 12.55178,-14.64492 13.20451,-14.64578 0.66277,-8.8e-4 21.3961,-0.96443 46.51493,-2.16172 l 10.49976,-0.50047 6.31478,3.13264 6.31478,3.13264 0.17146,1.23985 c 0.0943,0.68192 0.22171,1.58867 0.28313,2.015 0.0614,0.42632 0.0175,0.77513 -0.0976,0.77513 -0.1151,0 -2.87789,-1.44891 -6.13953,-3.2198 -3.26164,-1.77089 -6.07075,-3.2198 -6.24247,-3.2198 -0.17172,0 -7.08843,3.75014 -15.37047,8.33365 -8.28203,4.58352 -15.23952,8.40259 -15.46108,8.48683 -0.32222,0.12252 -0.43236,-0.0298 -0.55037,-0.76116 -0.28387,-1.75916 -0.37052,-1.98759 -0.75394,-1.98759 -0.91867,0 -12.1397,1.49483 -12.26925,1.63447 -0.0787,0.0849 -4.44091,7.29154 -9.69371,16.01483 -13.59722,22.58077 -14.67999,24.32524 -15.08679,24.30635 -0.19677,-0.009 -1.80667,-0.5058 -3.57756,-1.10369 z"
           id="path4929"
           transform="scale(0.26458333)" />
        <path
           style="fill:#099fdf;fill-opacity:1;stroke-width:0.590297;stroke-linecap:round;stroke-linejoin:bevel"
           d="m 601.74557,894.61903 c -6.09974,-0.0919 -15.00786,-0.30047 -19.79583,-0.46344 l -8.7054,-0.29631 -4.05457,-1.31087 c -2.23001,-0.72098 -4.13377,-1.38377 -4.23057,-1.47287 -0.0968,-0.0891 1.16002,-0.88864 2.79294,-1.77677 3.80258,-2.06818 4.6475,-3.03563 4.35472,-4.98624 -1.07082,-7.13431 -1.88362,-13.33566 -1.76361,-13.45567 0.1467,-0.1467 10.31756,2.94156 22.66059,6.88061 3.25944,1.04019 6.06544,1.85857 6.23554,1.81863 0.41974,-0.0986 11.02071,-10.1956 15.76487,-15.01545 4.36962,-4.43934 5.34463,-5.66908 5.34463,-6.74098 0,-0.72626 -1.02953,-9.64945 -1.33043,-11.53119 l -0.15176,-0.94908 11.41415,-6.32272 c 6.27778,-3.4775 13.21336,-7.30009 15.41239,-8.49465 l 3.99824,-2.17192 2.91838,1.16575 c 2.89173,1.15512 10.70071,4.50406 10.84959,4.65293 0.0426,0.0426 0.40159,1.21723 0.79788,2.6104 l 0.72051,2.53303 -7.58685,8.7722 c -4.17277,4.82471 -14.9859,17.32903 -24.02918,27.78738 l -16.44233,19.01517 -2.04173,-0.0404 c -1.12296,-0.0222 -7.03243,-0.11562 -13.13217,-0.20754 z"
           id="path4968"
           transform="scale(0.26458333)" />
        <path
           style="fill:#099fdf;fill-opacity:1;stroke-width:1.66961;stroke-linecap:round;stroke-linejoin:bevel"
           d="m 557.2123,898.58968 c -7.23499,-2.13315 -13.91345,-4.24347 -14.84101,-4.6896 -1.62209,-0.78016 -1.77308,-1.42152 -3.95465,-16.7978 -1.24749,-8.79267 -3.43066,-23.57582 -4.85148,-32.85145 -2.42591,-15.83722 -2.51378,-16.93386 -1.44208,-17.99858 1.34125,-1.33252 18.33178,-10.65732 19.43388,-10.66577 0.4143,-0.003 2.26907,0.62416 4.1217,1.39408 l 3.36842,1.39986 1.85476,9.89954 c 1.02011,5.44476 2.0578,10.93792 2.30597,12.20704 0.4419,2.25976 0.60854,2.36015 8.0571,4.85381 l 7.60588,2.54632 -0.46656,-3.16733 c -0.25661,-1.74203 -0.69435,-3.77446 -0.97275,-4.51651 -0.34524,-0.92019 0.0599,-2.36783 1.27401,-4.55281 0.97911,-1.76199 1.96329,-3.20393 2.18707,-3.20431 0.50971,-8.7e-4 8.90876,41.84018 8.48412,42.26482 -0.59331,0.59332 -4.73531,-0.84074 -5.25246,-1.81852 -0.28606,-0.54087 -0.91819,-2.77049 -1.40473,-4.95472 l -0.88462,-3.97131 -7.25185,-2.58453 c -3.98852,-1.42149 -7.25186,-2.31879 -7.25186,-1.994 0,0.3248 0.75892,5.80754 1.68648,12.18387 0.92756,6.37632 1.68648,12.30333 1.68648,13.17112 0,1.30378 -1.14228,2.19332 -6.57726,5.12201 -3.6175,1.94931 -7.4078,4.04355 -8.42289,4.65386 l -1.84562,1.10965 7.72002,2.16081 7.72001,2.16081 4.73358,-2.38379 c 3.52104,-1.77316 5.59169,-2.38378 8.08356,-2.38378 1.84249,0 3.50099,0.24433 3.68556,0.54297 0.46804,0.7573 -12.07757,6.89267 -13.92535,6.81012 -0.8299,-0.0371 -7.42844,-1.81272 -14.66343,-3.94588 z"
           id="path5007"
           transform="scale(0.26458333)" />
        <path
           style="fill:#099fdf;fill-opacity:1;stroke-width:1.66961;stroke-linecap:round;stroke-linejoin:bevel"
           d="m 617.41956,809.3114 c -3.43199,-1.54484 -6.23997,-2.98602 -6.23997,-3.2026 0,-0.21659 6.69024,-4.08873 14.86721,-8.60476 l 14.86722,-8.21098 5.70781,3.08617 c 3.1393,1.69738 5.70782,3.29351 5.70782,3.54694 0,0.58865 -26.01379,15.68234 -27.53257,15.97491 -0.62566,0.12053 -3.94554,-1.04483 -7.37752,-2.58968 z"
           id="path5046"
           transform="scale(0.26458333)" />
        <path
           style="fill:#099fdf;fill-opacity:1;stroke-width:1.66961;stroke-linecap:round;stroke-linejoin:bevel"
           d="m 386.5815,788.28056 c -2.88549,-1.47206 -3.06012,-1.7421 -4.86274,-7.51976 -1.45653,-4.66837 -1.68939,-6.16523 -1.05362,-6.77278 0.72119,-0.68917 23.8096,-16.72159 25.9308,-18.00615 1.01871,-0.61691 6.28676,0.88483 6.67769,1.90358 0.15587,0.40619 -1.50839,5.58519 -3.69836,11.50888 l -3.98176,10.77034 -6.32208,3.89091 c -10.23935,6.30178 -9.25892,5.97536 -12.68993,4.22498 z"
           id="path5085"
           transform="scale(0.26458333)" />
        <path
           style="fill:#099fdf;fill-opacity:1;stroke-width:1.18059;stroke-linecap:round;stroke-linejoin:bevel"
           d="m 418.37191,771.12096 c -0.0197,-1.02876 -0.39235,-2.26433 -0.828,-2.74572 -0.43565,-0.48138 -0.70396,-0.93985 -0.59626,-1.01881 0.10771,-0.079 1.10811,-0.84698 2.22311,-1.70669 1.11501,-0.85972 2.02729,-1.37438 2.02729,-1.1437 0,0.23067 -0.6278,2.23426 -1.39512,4.4524 -1.28132,3.70405 -1.39804,3.88043 -1.43102,2.16252 z"
           id="path5200"
           transform="scale(0.26458333)" />
        <path
           style="fill:#099fdf;fill-opacity:1;stroke-width:1.18059;stroke-linecap:round;stroke-linejoin:bevel"
           d="m 417.19247,784.79738 c 0.48697,-5.41701 0.83941,-6.91114 3.22411,-13.66817 1.47256,-4.17247 2.76571,-7.67465 2.87368,-7.78261 0.38315,-0.38315 6.01642,2.7517 5.98636,3.33135 -0.0168,0.32416 -1.57305,5.09711 -3.45831,10.60656 l -3.42774,10.01716 -2.62355,1.77423 c -1.44295,0.97583 -2.73553,1.78078 -2.87242,1.78878 -0.13688,0.008 -0.003,-2.72228 0.29787,-6.0673 z"
           id="path5239"
           transform="scale(0.26458333)" />
        <path
           style="fill:#099fdf;fill-opacity:1;stroke-width:1.18059;stroke-linecap:round;stroke-linejoin:bevel"
           d="m 437.2409,767.62509 c 0.24831,-2.38867 1.18725,-17.49379 1.21456,-19.53914 0.0183,-1.3705 -0.3928,-2.72516 -1.29338,-4.26188 -1.73701,-2.96398 -8.06494,-9.33047 -10.47844,-10.54229 -3.61869,-1.81694 -13.84248,-5.25561 -17.3816,-5.84613 -8.6202,-1.43832 -22.92925,1.94668 -30.18138,7.13981 -4.34632,3.11233 -4.85041,4.55774 -6.07535,17.42039 -0.57427,6.03017 -1.1062,11.02603 -1.18206,11.1019 -0.40668,0.40667 -6.25269,-4.5357 -9.49115,-8.02407 -2.65116,-2.85574 -4.30843,-5.18657 -5.7241,-8.0505 l -1.99257,-4.031 0.0431,-5.75022 c 0.0278,-3.71178 0.32566,-6.82833 0.84025,-8.79145 1.15472,-4.40525 3.88996,-9.29951 6.51735,-11.66176 2.09842,-1.88666 10.84487,-6.97033 14.87097,-8.64341 2.05157,-0.85254 18.99902,-3.8963 24.26199,-4.35745 4.16791,-0.36519 10.54485,0.35724 15.71592,1.78042 5.68263,1.56398 16.54083,5.55749 21.33084,7.8452 6.25653,2.98813 14.56779,10.11133 16.78645,14.38689 0.30787,0.5933 1.16491,3.11416 1.90452,5.6019 1.30303,4.38281 1.33264,4.72127 0.95404,10.90676 -0.24917,4.07102 -0.68816,7.13937 -1.21177,8.46983 -0.96282,2.44648 -2.73596,5.43876 -4.16668,7.03153 -2.19562,2.44431 -13.06444,9.10528 -14.8842,9.12179 -0.2825,0.002 -0.45228,-0.58564 -0.37728,-1.30712 z"
           id="path5278"
           transform="scale(0.26458333)" />
        <path
           style="fill:#808080;fill-opacity:1;stroke-width:1.18059;stroke-linecap:round;stroke-linejoin:bevel"
           d="m 576.22564,871.17133 c -3.01707,-0.93269 -5.72659,-1.88931 -6.02114,-2.12582 -0.29456,-0.23652 -0.68335,-1.768 -0.86398,-3.4033 -0.18063,-1.6353 -0.44563,-3.45529 -0.58889,-4.04441 -0.25105,-1.03242 -0.0393,-0.99266 5.85938,1.09984 3.36592,1.19404 6.20364,2.25476 6.30604,2.35716 0.25347,0.25347 1.47208,5.99581 1.49294,7.03504 0.0211,1.04848 0.32407,1.09349 -6.18435,-0.91851 z"
           id="path5354"
           transform="scale(0.26458333)" />
        <path
           style="fill:#808080;fill-opacity:1;stroke-width:0.590297;stroke-linecap:round;stroke-linejoin:bevel"
           d="m 563.16755,896.94004 c -3.18105,-0.92781 -5.7824,-1.74698 -5.78078,-1.82037 0.002,-0.0734 1.25297,-0.82123 2.78077,-1.66186 l 2.77782,-1.52842 4.82997,1.58805 c 2.65648,0.87342 5.24207,1.58968 5.74575,1.59169 1.79221,0.007 1.52731,0.34015 -1.54387,1.94079 l -3.02594,1.57706 z"
           id="path5393"
           transform="scale(0.26458333)" />
        <path
           style="fill:#808080;fill-opacity:1;stroke-width:0.590297;stroke-linecap:round;stroke-linejoin:bevel"
           d="m 575.27163,845.31209 c -0.98383,-0.32794 -1.82517,-0.6269 -1.86965,-0.66435 -0.10632,-0.0895 2.66694,-4.63178 2.82961,-4.63455 0.14531,-0.002 1.04325,5.71262 0.91473,5.82202 -0.0472,0.0402 -0.89086,-0.19518 -1.87469,-0.52312 z"
           id="path5432"
           transform="scale(0.26458333)" />
        <path
           style="fill:#666666;fill-opacity:1;stroke-width:0.590297;stroke-linecap:round;stroke-linejoin:bevel"
           d="m 446.87732,911.92734 -0.61012,-3.21247 1.5613,-3.28676 c 0.85872,-1.80772 1.66359,-3.35036 1.7886,-3.42809 0.32112,-0.19965 4.95057,-1.03283 5.06861,-0.91222 0.0536,0.0547 0.46524,1.45964 0.91483,3.12199 l 0.81743,3.02246 -1.54468,3.68376 -1.54468,3.68376 -2.66341,0.27002 c -1.46487,0.14851 -2.77913,0.27002 -2.92058,0.27002 -0.14145,0 -0.53173,-1.44561 -0.8673,-3.21247 z"
           id="path5621"
           transform="scale(0.26458333)" />
        <path
           style="fill:#666666;fill-opacity:1;stroke-width:0.417403;stroke-linecap:round;stroke-linejoin:bevel"
           d="m 382.66092,857.95347 c -0.29608,-0.71886 -0.68062,-1.63469 -0.85453,-2.03516 l -0.3162,-0.72814 0.96528,-2.64471 0.96528,-2.64471 2.1081,-0.87223 c 1.15945,-0.47972 2.22552,-0.8782 2.36904,-0.88551 0.17558,-0.009 0.49996,0.55224 0.99154,1.71536 l 0.73058,1.72864 -0.27291,0.77628 c -0.1501,0.42696 -0.69323,1.79301 -1.20696,3.03566 l -0.93405,2.25938 -1.89267,0.80112 c -1.04097,0.44062 -1.94251,0.8011 -2.00342,0.80108 -0.0609,-2e-5 -0.353,-0.5882 -0.64908,-1.30706 z"
           id="path5921"
           transform="scale(0.26458333)" />
        <path
           style="fill:#099fdf;fill-opacity:0.997669;stroke-width:0.208702;stroke-linecap:round;stroke-linejoin:bevel"
           d="m 418.4883,771.98104 c -0.006,-0.0673 -0.0156,-0.65351 -0.0211,-1.3028 -0.009,-1.11991 -0.0224,-1.20596 -0.25275,-1.67564 -0.14294,-0.29141 -0.45295,-0.70004 -0.75349,-0.99321 -0.43651,-0.4258 -0.49306,-0.51436 -0.38958,-0.60998 0.19434,-0.17958 3.68013,-2.73118 3.86973,-2.83265 0.14752,-0.079 0.1724,-0.0674 0.1724,0.0801 0,0.18004 -0.51726,1.74998 -1.71965,5.2193 -0.66853,1.92895 -0.87786,2.41782 -0.90558,2.11487 z"
           id="path6073"
           transform="scale(0.26458333)" />
        <path
           style="fill:#099fdf;fill-opacity:1;stroke-width:0.208702;stroke-linecap:round;stroke-linejoin:bevel"
           d="m 418.48614,770.67503 c -0.0281,-1.31205 -0.035,-1.3566 -0.27588,-1.7676 -0.13589,-0.23189 -0.44894,-0.63375 -0.69567,-0.89302 -0.24673,-0.25927 -0.44861,-0.49085 -0.44861,-0.51461 0,-0.0429 1.81858,-1.40601 3.20035,-2.39885 0.56105,-0.40312 0.72613,-0.48677 0.74514,-0.37757 0.0342,0.19647 -2.15996,6.69621 -2.41336,7.14901 -0.0582,0.10402 -0.0918,-0.25519 -0.11197,-1.19736 z"
           id="path6223"
           transform="scale(0.26458333)" />
        <path
           style="fill:#099fdf;fill-opacity:0.8;stroke-width:0.590297;stroke-linecap:round;stroke-linejoin:bevel"
           d="m 418.5224,770.38653 c -0.0761,-0.79198 -0.32628,-1.46877 -0.74666,-2.01992 l -0.63221,-0.82887 1.01362,-0.8103 c 1.45197,-1.16073 2.57585,-1.91269 2.68923,-1.7993 0.0897,0.0897 -1.9569,6.39679 -2.13275,6.57265 -0.0422,0.0422 -0.12829,-0.45919 -0.19123,-1.11426 z"
           id="path6457"
           transform="scale(0.26458333)" />
        <path
           style="fill:#099fdf;fill-opacity:0.8;stroke-width:0.590297;stroke-linecap:round;stroke-linejoin:bevel"
           d="m 418.55678,770.94428 c -0.0317,-1.24536 -0.22088,-1.84326 -0.83984,-2.65477 l -0.60864,-0.79797 0.55422,-0.46068 c 0.98429,-0.81816 3.06858,-2.21814 3.15975,-2.12235 0.10522,0.11055 -1.89879,6.38242 -2.10532,6.58896 -0.0784,0.0783 -0.15042,-0.17059 -0.16017,-0.55319 z"
           id="path6496"
           transform="scale(0.26458333)" />
        <path
           style="fill:#099fdf;fill-opacity:0.8;stroke-width:2.475;stroke-linecap:round;stroke-linejoin:bevel"
           d="m 418.55678,770.90453 c -0.0326,-1.20654 -0.22684,-1.81133 -0.83984,-2.61502 l -0.60864,-0.79797 0.55422,-0.46629 c 1.16148,-0.97719 3.06449,-2.21648 3.19822,-2.08276 0.0768,0.0768 -0.0183,0.4971 -0.21127,0.93408 -0.19296,0.43698 -0.689,1.89461 -1.1023,3.23918 -0.4133,1.34456 -0.80123,2.44466 -0.86206,2.44466 -0.0608,0 -0.11858,-0.29515 -0.12833,-0.65588 z"
           id="path6535"
           transform="scale(0.26458333)" />
        <path
           style="fill:#099fdf;fill-opacity:0.8;stroke-width:0.147574;stroke-linecap:round;stroke-linejoin:bevel"
           d="m 418.55366,771.64685 c -0.02,-0.0639 -0.0348,-0.37115 -0.0327,-0.6827 0.008,-1.26554 -0.19999,-1.93413 -0.85624,-2.74922 -0.48215,-0.59886 -0.54104,-0.70277 -0.4562,-0.80499 0.27178,-0.32747 3.63023,-2.73068 3.70822,-2.65349 0.0771,0.0763 -0.29305,1.378 -0.3918,1.378 -0.0303,0 -0.04,0.0394 -0.0215,0.0875 0.0185,0.0481 0.007,0.10365 -0.0244,0.12337 -0.0319,0.0197 -0.0443,0.058 -0.0275,0.0851 0.0168,0.0271 -0.009,0.12588 -0.0583,0.21948 -0.0488,0.0936 -0.0889,0.20278 -0.0891,0.24262 -3.9e-4,0.075 -0.14744,0.53095 -0.25548,0.79213 -0.0339,0.082 -0.0726,0.21548 -0.086,0.29665 -0.0134,0.0812 -0.0463,0.17508 -0.0732,0.20869 -0.0269,0.0336 -0.0688,0.15414 -0.0932,0.26784 -0.0243,0.11371 -0.0652,0.24787 -0.0909,0.29813 -0.0256,0.0503 -0.18685,0.52071 -0.35828,1.04542 -0.17143,0.5247 -0.34027,1.00767 -0.3752,1.07326 -0.0349,0.0656 -0.0715,0.16718 -0.0813,0.22576 -0.01,0.0586 -0.0814,0.23164 -0.15909,0.38457 -0.1166,0.22943 -0.14769,0.25773 -0.17775,0.16181 z"
           id="path6574"
           transform="scale(0.26458333)" />
        <path
           style="fill:#099fdf;fill-opacity:1;stroke-width:0.834807;stroke-linecap:round;stroke-linejoin:bevel"
           d="m 468.67221,933.16492 c -1.46617,-0.69544 -2.68465,-1.51921 -7.57637,-5.12206 l -0.95112,-0.70052 5.74362,-10.87051 c 5.48317,-10.37756 5.75101,-10.97384 5.90666,-13.14918 0.21597,-3.01846 -0.44894,-4.30163 -3.40726,-6.57544 -1.24037,-0.95337 -10.71488,-8.25438 -21.05446,-16.22449 -10.33959,-7.9701 -19.78584,-15.24718 -20.99167,-16.1713 -3.63432,-2.78525 -9.47287,-7.27518 -12.81723,-9.85666 -1.20583,-0.93077 -3.10312,-2.38963 -4.2162,-3.24192 -1.11307,-0.85228 -3.31392,-2.54874 -4.89078,-3.76991 -1.57686,-1.22116 -4.33789,-3.3207 -6.13562,-4.66564 -1.79773,-1.34495 -3.27761,-2.54271 -3.28863,-2.6617 -0.011,-0.11899 0.57942,-0.4562 1.31208,-0.74935 1.55623,-0.62269 1.44928,-0.21796 2.20062,-8.32719 4.20021,-45.33254 3.89913,-40.79551 2.70724,-40.79551 -0.48388,0 -0.84324,0.19445 -0.84324,0.45627 0,0.38572 -1.34073,15.10664 -3.55267,39.00731 -0.74095,8.00622 -0.64921,7.65075 -2.17529,8.4293 l -1.31216,0.66941 -2.12964,-1.00748 c -2.51297,-1.18883 -3.57658,-1.25754 -4.78252,-0.30895 -0.84993,0.66856 -0.88872,0.67124 -0.88872,0.0614 0,-0.35073 1.13837,-10.76131 2.52971,-23.13463 1.39135,-12.37331 2.52972,-22.69763 2.52972,-22.94293 0,-0.24529 2.46647,-1.94324 5.48105,-3.77322 3.01458,-1.82997 6.69532,-4.11156 8.17942,-5.0702 l 2.69837,-1.74298 2.17752,-5.97694 c 1.19764,-3.28732 2.34937,-6.21194 2.55938,-6.49915 0.33198,-0.45401 0.61506,-0.46627 2.16725,-0.0939 2.59575,0.62271 3.07772,1.23387 2.85779,3.62374 -0.0984,1.06928 -0.46903,5.35925 -0.82362,9.53329 -0.35459,4.17403 -1.79474,19.95946 -3.20033,35.07874 -1.40558,15.11927 -2.58862,28.49569 -2.62897,29.72537 l -0.0734,2.23578 28.95698,22.13382 c 15.92635,12.17361 28.97969,22.1332 29.00742,22.13243 0.0277,-6.7e-4 3.2959,-1.67037 7.26257,-3.71025 3.96668,-2.03987 7.3103,-3.70886 7.43026,-3.70886 0.11997,0 0.40426,1.36673 0.63176,3.03718 0.5299,3.89081 2.08148,8.72861 3.61759,11.27957 1.31063,2.17652 3.7775,5.27919 6.7146,8.4452 l 1.87234,2.01827 -6.82478,3.43966 -6.82479,3.43966 -3.87889,7.80329 c -2.1334,4.29181 -4.15044,8.09679 -4.48231,8.45551 -0.82781,0.89478 -2.70929,0.83421 -4.79332,-0.15431 z"
           id="path6652"
           transform="scale(0.26458333)" />
        <path
           style="fill:#099fdf;fill-opacity:1;stroke-width:0.834807;stroke-linecap:round;stroke-linejoin:bevel"
           d="m 533.38769,890.81054 c -7.24871,-3.65091 -12.1965,-9.60883 -13.30349,-16.01951 -0.50435,-2.92074 -0.23627,-8.83937 0.56289,-12.42725 0.48806,-2.19117 0.7532,-2.74981 1.58684,-3.34341 1.43589,-1.02245 10.43904,-5.99988 10.85218,-5.99968 0.28005,1.3e-4 5.95941,37.11796 5.92213,38.7045 -0.0218,0.92974 -2.88304,0.46413 -5.62055,-0.91465 z"
           id="path6691"
           transform="scale(0.26458333)" />
        <path
           style="fill:#099fdf;fill-opacity:1;stroke-width:0.834807;stroke-linecap:round;stroke-linejoin:bevel"
           d="m 568.45093,842.77197 c -1.70303,-0.57797 -3.20557,-1.16205 -3.33898,-1.29796 -0.1334,-0.1359 -1.2508,-5.60009 -2.4831,-12.14264 l -2.24055,-11.89553 -1.28974,-0.61131 -1.28974,-0.6113 0.65974,-0.73788 c 0.36286,-0.40583 1.92954,-2.25571 3.48151,-4.11084 1.55196,-1.85512 3.35966,-3.98825 4.0171,-4.74029 0.65744,-0.75204 1.57593,-1.81452 2.04109,-2.36107 8.4633,-9.94418 12.32943,-14.42602 13.53589,-15.69155 l 1.47126,-1.54328 28.67012,-1.28928 28.67013,-1.28928 6.07132,2.98363 c 3.33922,1.641 6.11397,3.00891 6.16611,3.0398 0.21421,0.12691 0.48765,3.5206 0.28367,3.5206 -0.1218,0 -2.86385,-1.45219 -6.09344,-3.2271 l -5.872,-3.2271 -7.86698,4.36501 c -9.44859,5.24258 -9.57569,5.31289 -15.96208,8.83127 -2.78269,1.53303 -5.53855,3.05826 -6.12414,3.38939 -1.04807,0.59266 -1.06776,0.59067 -1.26025,-0.12689 -0.10755,-0.40092 -0.19762,-1.07046 -0.20016,-1.48786 -0.006,-0.91481 0.49797,-0.91954 -6.87791,0.0646 -3.66102,0.48847 -6.19319,0.98167 -6.44527,1.25538 -0.22837,0.24796 -4.18345,6.74982 -8.78907,14.44859 -9.09901,15.20993 -15.23749,25.20644 -15.60508,25.41289 -0.12816,0.072 -1.62641,-0.34201 -3.32945,-0.91999 z"
           id="path6730"
           transform="scale(0.26458333)" />
        <path
           style="fill:#099fdf;fill-opacity:1;stroke-width:0.834807;stroke-linecap:round;stroke-linejoin:bevel"
           d="m 589.08673,894.1512 c -14.44505,-0.35491 -15.50447,-0.45434 -19.8685,-1.86465 -2.0582,-0.66514 -3.7815,-1.24832 -3.82953,-1.29594 -0.048,-0.0476 1.13931,-0.74681 2.63855,-1.55374 1.49925,-0.80693 3.11217,-1.92621 3.58428,-2.48727 0.97205,-1.15522 0.97867,-0.8824 -0.22151,-9.12814 -0.37725,-2.59183 -0.6859,-5.15064 -0.6859,-5.68626 0,-0.89097 0.0789,-0.95509 0.92756,-0.75339 0.99001,0.23531 26.18246,8.08655 27.11732,8.45113 0.96591,0.37669 21.27658,-19.41514 21.71444,-21.15974 0.17107,-0.68158 0.0141,-2.39547 -1.04317,-11.38671 l -0.21814,-1.85512 7.54111,-4.19437 c 10.35694,-5.76054 16.08633,-8.91482 19.77726,-10.88826 3.65219,-1.95272 2.50653,-2.10826 11.07651,1.50386 l 5.7733,2.43337 0.59026,2.27577 c 0.32464,1.25168 0.5031,2.50291 0.39658,2.7805 -0.10653,0.2776 -10.83041,12.80343 -23.83085,27.83518 l -23.63716,27.33045 -8.84177,-0.054 c -4.86298,-0.0297 -13.39526,-0.16591 -18.96064,-0.30265 z"
           id="path6769"
           transform="scale(0.26458333)" />
        <path
           style="fill:#099fdf;fill-opacity:1;stroke-width:0.295149;stroke-linecap:round;stroke-linejoin:bevel"
           d="m 416.90596,790.13391 c 5.3e-4,-0.27875 0.0517,-0.96296 0.11361,-1.52046 0.062,-0.55751 0.25204,-2.62355 0.42242,-4.5912 0.17039,-1.96766 0.4127,-4.08737 0.53847,-4.71046 0.13085,-0.64826 1.22426,-4.02383 2.55598,-7.89085 3.05725,-8.87754 2.74708,-8.08988 3.14101,-7.97633 0.98149,0.28291 4.84292,2.43834 5.29791,2.95726 0.16803,0.19164 -0.0643,0.96018 -2.71323,8.97461 -1.59334,4.82076 -3.21083,9.51431 -3.59441,10.43012 l -0.69742,1.6651 -2.48129,1.58451 c -1.36471,0.87149 -2.50441,1.58452 -2.53266,1.58452 -0.0283,0 -0.0509,-0.22807 -0.0504,-0.50682 z"
           id="path6808"
           transform="scale(0.26458333)" />
        <path
           style="fill:#099fdf;fill-opacity:1;stroke-width:0.295149;stroke-linecap:round;stroke-linejoin:bevel"
           d="m 418.55113,771.35645 c -0.0295,-0.11738 -0.0676,-0.53415 -0.0847,-0.92614 -0.0409,-0.94039 -0.221,-1.42695 -0.82356,-2.22503 -0.27468,-0.36382 -0.49942,-0.69557 -0.49942,-0.73722 0,-0.0417 0.55005,-0.47827 1.22233,-0.97026 0.67229,-0.49198 1.276,-0.93863 1.34159,-0.99256 0.30547,-0.25117 1.07956,-0.74219 1.17005,-0.74219 0.12,0 2.3e-4,0.62922 -0.21565,1.13289 -0.0843,0.19677 -0.428,1.21637 -0.76369,2.26579 -0.57636,1.80179 -1.09436,3.20919 -1.2317,3.34653 -0.0339,0.0339 -0.0858,-0.0344 -0.11528,-0.15181 z"
           id="path6847"
           transform="scale(0.26458333)" />
        <path
           style="fill:#099fdf;fill-opacity:1;stroke-width:0.295149;stroke-linecap:round;stroke-linejoin:bevel"
           d="m 417.02423,789.8253 c 0,-0.77021 0.48548,-6.16568 0.79042,-8.78435 0.15785,-1.35556 0.32451,-2.08442 0.88621,-3.87569 1.2097,-3.85774 4.45224,-13.21185 4.69477,-13.54353 0.13154,-0.1799 0.22784,-0.15902 1.07776,0.23367 1.18809,0.54893 3.61302,1.9263 4.12039,2.34039 l 0.38874,0.31727 -0.14904,0.64546 c -0.082,0.355 -1.34353,4.2409 -2.80346,8.63534 -2.39886,7.22064 -3.81861,11.19655 -4.13928,11.59174 -0.10672,0.13151 -1.32141,0.92061 -3.88268,2.52228 l -0.98383,0.61523 z"
           id="path6886"
           transform="scale(0.26458333)" />
        <path
           style="fill:#099fdf;fill-opacity:1;stroke-width:0.295149;stroke-linecap:round;stroke-linejoin:bevel"
           d="m 417.07894,789.25665 c 0.0426,-0.64891 0.0989,-1.314 0.1251,-1.47797 0.0262,-0.16397 0.0806,-0.75427 0.12101,-1.31177 0.173,-2.38979 0.65839,-6.46088 0.88648,-7.43515 0.24071,-1.02818 2.46676,-7.82053 3.6992,-11.28741 0.33808,-0.95104 0.7672,-2.16611 0.9536,-2.70017 0.42533,-1.21866 0.56191,-1.47365 0.78934,-1.47365 0.14972,0 2.54613,1.18745 3.24895,1.6099 0.10912,0.0656 0.49355,0.29369 0.85429,0.5069 1.00386,0.59331 1.22366,0.81237 1.13329,1.12948 -0.56968,1.99909 -4.53359,13.95085 -5.72943,17.27506 -1.08511,3.01642 -1.21273,3.26354 -1.93746,3.7516 -0.33666,0.22672 -0.64094,0.41222 -0.67617,0.41222 -0.0352,0 -0.32549,0.18782 -0.64502,0.41738 -0.31953,0.22956 -0.61086,0.41738 -0.64741,0.41738 -0.0365,0 -0.47595,0.27119 -0.97646,0.60265 -1.3706,0.90765 -1.28951,0.93716 -1.19931,-0.43645 z"
           id="path6925"
           transform="scale(0.26458333)" />
        <path
           style="fill:#099fdf;fill-opacity:1;stroke-width:0.295149;stroke-linecap:round;stroke-linejoin:bevel"
           d="m 417.12135,789.98912 c -0.0273,-0.23385 0.0134,-1.05493 0.0904,-1.82463 0.077,-0.7697 0.17646,-1.88242 0.22097,-2.47272 0.0445,-0.59029 0.10365,-1.18059 0.13141,-1.31177 0.0278,-0.13118 0.0768,-0.65653 0.10895,-1.16746 0.0322,-0.51093 0.084,-0.9702 0.11511,-1.0206 0.0311,-0.0504 0.0909,-0.46415 0.13279,-0.91945 0.11882,-1.29146 0.14952,-1.50648 0.29697,-2.07995 0.0759,-0.29515 0.15551,-0.61713 0.17693,-0.71551 0.0214,-0.0984 0.13097,-0.4472 0.24343,-0.77514 0.11247,-0.32794 0.21638,-0.64992 0.2309,-0.71551 0.0145,-0.0656 0.0883,-0.27032 0.16399,-0.45496 0.0757,-0.18464 0.13757,-0.3773 0.13757,-0.42814 0,-0.0508 0.15515,-0.55715 0.34477,-1.12513 0.18962,-0.56799 0.31721,-1.0327 0.28353,-1.0327 -0.0337,0 0.006,-0.0805 0.0872,-0.17888 0.0817,-0.0984 0.10848,-0.17887 0.0596,-0.17887 -0.0489,0 -0.0355,-0.0671 0.0297,-0.14907 0.0652,-0.082 0.4234,-1.08817 0.79597,-2.23597 0.37257,-1.1478 0.72327,-2.19424 0.77933,-2.32542 0.15044,-0.352 0.47788,-1.2391 0.49533,-1.34192 0.008,-0.049 0.0547,-0.19643 0.10307,-0.32761 0.0484,-0.13117 0.20218,-0.54706 0.3418,-0.9242 0.13961,-0.37713 0.21703,-0.6857 0.17203,-0.6857 -0.045,0 -0.0174,-0.0644 0.0613,-0.1431 0.0787,-0.0787 0.14311,-0.20937 0.14311,-0.29037 0,-0.081 0.0626,-0.29833 0.13907,-0.48297 0.0765,-0.18464 0.14547,-0.36254 0.15329,-0.39533 0.0142,-0.0596 0.31301,-0.62718 0.36232,-0.68822 0.11313,-0.14006 4.60463,2.25958 5.11387,2.73214 0.21721,0.20158 0.21885,0.29715 0.0202,1.17588 -0.007,0.0328 -0.19116,0.59179 -0.40832,1.2422 -0.21715,0.65042 -0.41967,1.31954 -0.45002,1.48695 -0.0304,0.1674 -0.10367,0.36278 -0.16291,0.43416 -0.0592,0.0714 -0.18567,0.42186 -0.28094,0.77884 -0.0953,0.35698 -0.47806,1.56133 -0.85063,2.67634 -0.37257,1.11501 -0.68719,2.08095 -0.69917,2.14654 -0.012,0.0656 -0.0529,0.17291 -0.091,0.2385 -0.0381,0.0656 -0.40244,1.13886 -0.80967,2.38504 -0.40722,1.24618 -0.81079,2.42678 -0.89681,2.62354 -0.086,0.19677 -0.30182,0.8139 -0.47956,1.3714 -0.17773,0.5575 -0.3929,1.17463 -0.47815,1.3714 -0.0852,0.19676 -0.19118,0.49191 -0.23539,0.65589 -0.087,0.32251 -0.14869,0.47846 -0.53052,1.34028 -0.13771,0.31083 -0.25039,0.61067 -0.25039,0.6663 0,0.16754 -0.98178,1.0186 -1.46888,1.2733 -0.25038,0.13093 -0.5567,0.33196 -0.68071,0.44674 -0.12401,0.11478 -0.25686,0.20869 -0.29521,0.20869 -0.0792,0 -1.47429,0.88023 -1.69417,1.06892 -0.0792,0.068 -0.18232,0.1236 -0.22912,0.1236 -0.0468,0 -0.17703,0.0832 -0.28941,0.18492 -0.18885,0.17091 -0.20808,0.15272 -0.25396,-0.24027 z"
           id="path6964"
           transform="scale(0.26458333)" />
        <path
           style="fill:#099fdf;fill-opacity:1;stroke-width:0.295149;stroke-linecap:round;stroke-linejoin:bevel"
           d="m 417.07233,789.77059 c 0.0544,-0.87006 0.16485,-2.27989 0.24474,-3.1248 0.24106,-2.54938 0.33354,-3.47409 0.47708,-4.77008 0.0218,-0.19677 0.0753,-0.70657 0.11882,-1.13289 0.0881,-0.86242 0.61271,-3.07692 0.7753,-3.27283 0.0575,-0.0692 0.11031,-0.16585 0.11746,-0.21472 0.0676,-0.46167 0.1758,-0.8219 0.26313,-0.87587 0.0582,-0.036 0.0774,-0.11132 0.0427,-0.16746 -0.0571,-0.0923 -0.0171,-0.22483 0.30566,-1.01434 0.0536,-0.13118 0.24009,-0.72148 0.41436,-1.31177 0.17427,-0.5903 0.35394,-1.12694 0.39927,-1.19252 0.0453,-0.0656 0.18073,-0.44124 0.30089,-0.83477 0.19442,-0.6367 1.17474,-3.53309 1.35213,-3.99494 0.0378,-0.0984 0.0756,-0.20571 0.0841,-0.2385 0.084,-0.32567 0.35478,-1.03953 0.43107,-1.1366 0.0532,-0.0676 0.12304,-0.26853 0.15531,-0.44644 0.0738,-0.4073 0.52911,-1.70986 0.7492,-2.14359 0.18352,-0.36166 0.52545,-0.42752 0.75894,-0.14618 0.083,0.1 0.17697,0.15564 0.20889,0.12371 0.0319,-0.0319 0.48356,0.16801 1.00363,0.44431 0.52007,0.2763 1.14368,0.60261 1.38579,0.72513 0.24212,0.12251 0.46705,0.25719 0.49985,0.29927 0.0328,0.0421 0.26427,0.18332 0.51439,0.31387 0.25012,0.13055 0.63367,0.3843 0.85234,0.5639 0.35432,0.29101 0.38779,0.36884 0.30769,0.71551 -0.0873,0.37797 -0.41403,1.39891 -0.5633,1.76037 -0.0406,0.0984 -0.0874,0.24276 -0.1039,0.32083 -0.0385,0.18206 -0.28903,0.99626 -0.37831,1.22945 -0.0377,0.0984 -0.0858,0.26547 -0.10696,0.37131 -0.0212,0.10584 -0.0872,0.32049 -0.14668,0.47701 -0.0595,0.15652 -0.12256,0.33824 -0.14012,0.40383 -0.0176,0.0656 -0.1877,0.57539 -0.3781,1.13289 -0.1904,0.5575 -0.60838,1.81859 -0.92885,2.80242 -0.75093,2.30534 -2.5788,7.68287 -2.76196,8.12559 -0.0777,0.18771 -0.14664,0.36813 -0.15329,0.40093 -0.007,0.0328 -0.25263,0.73042 -0.54663,1.55028 -0.45396,1.26597 -0.61257,1.56703 -1.0523,1.99747 -0.28477,0.27875 -0.5654,0.50682 -0.62363,0.50682 -0.0582,0 -0.6144,0.33539 -1.23596,0.74532 -2.8019,1.84792 -2.69269,1.80626 -2.64275,1.00808 z"
           id="path7003"
           transform="scale(0.26458333)" />
        <path
           style="fill:#099fdf;fill-opacity:1;stroke-width:0.295149;stroke-linecap:round;stroke-linejoin:bevel"
           d="m 417.06589,790.1003 c -0.0346,-0.0901 0.002,-0.8505 0.0804,-1.68988 0.0788,-0.83937 0.15804,-1.71395 0.17617,-1.94351 0.0451,-0.57116 0.16532,-1.82033 0.25822,-2.68317 0.10955,-1.01739 0.11565,-1.08171 0.20937,-2.20616 0.0465,-0.5575 0.19051,-1.46978 0.3201,-2.02728 0.12959,-0.55751 0.26068,-1.13202 0.29132,-1.2767 0.0306,-0.14469 0.11733,-0.413 0.19265,-0.59626 0.0753,-0.18327 0.15847,-0.46323 0.18477,-0.62215 0.0263,-0.15891 0.10816,-0.4004 0.18191,-0.53663 0.0738,-0.13623 0.14718,-0.36533 0.16317,-0.50911 0.016,-0.14377 0.10498,-0.43892 0.19775,-0.65588 0.0928,-0.21696 0.33338,-0.90428 0.53469,-1.52737 0.35166,-1.08851 0.93947,-2.84665 1.0765,-3.2198 0.0361,-0.0984 0.077,-0.21913 0.0909,-0.26832 0.0139,-0.0492 0.0386,-0.11627 0.055,-0.14907 0.0164,-0.0328 0.0412,-0.0999 0.055,-0.14906 0.0139,-0.0492 0.055,-0.16994 0.0915,-0.26832 0.0365,-0.0984 0.29592,-0.84784 0.57658,-1.66546 0.28067,-0.81763 0.58127,-1.62258 0.66801,-1.78878 0.0867,-0.16621 0.15804,-0.39358 0.15845,-0.50528 4e-4,-0.11169 0.0497,-0.32634 0.1095,-0.477 0.0598,-0.15066 0.22629,-0.58062 0.36991,-0.95545 0.28686,-0.74863 0.59194,-0.95642 0.94076,-0.64074 0.1154,0.10444 0.24571,0.15399 0.28958,0.11012 0.0439,-0.0439 0.0798,-0.008 0.0798,0.0792 0,0.0875 0.0345,0.1245 0.0767,0.0823 0.14517,-0.14517 3.02503,1.42484 3.93587,2.14571 0.47841,0.37862 0.49118,0.40665 0.39021,0.85605 -0.0574,0.25553 -0.23211,0.83333 -0.38821,1.28399 -0.28592,0.82546 -1.18711,3.60466 -1.22275,3.77086 -0.0105,0.0492 -0.0326,0.11627 -0.049,0.14907 -0.0164,0.0328 -0.0373,0.0999 -0.0465,0.14906 -0.009,0.0492 -0.0502,0.1431 -0.0912,0.20869 -0.041,0.0656 -0.17093,0.46807 -0.28884,0.89439 -0.11791,0.42633 -0.50376,1.60692 -0.85743,2.62355 -0.35368,1.01662 -0.7962,2.34166 -0.98338,2.94453 -0.18718,0.60287 -0.39226,1.19317 -0.45573,1.31177 -0.0635,0.11861 -0.11211,0.24248 -0.10808,0.27527 0.0217,0.17633 -1.83607,5.38873 -2.18563,6.13239 -0.1414,0.30081 -0.4523,0.69837 -0.69087,0.88344 -0.62018,0.48111 -3.96506,2.57193 -4.16043,2.60061 -0.0901,0.0132 -0.19207,-0.0497 -0.22663,-0.1397 z"
           id="path7042"
           transform="scale(0.26458333)" />
        <path
           style="fill:#099fdf;fill-opacity:1;stroke-width:0.295149;stroke-linecap:round;stroke-linejoin:bevel"
           d="m 417.07598,789.24261 c 0.0481,-0.64119 0.10294,-1.32679 0.12196,-1.52355 0.019,-0.19677 0.0719,-0.84073 0.11748,-1.43103 0.0456,-0.59029 0.10392,-1.15376 0.12961,-1.25214 0.0257,-0.0984 0.0785,-0.58136 0.11726,-1.07327 0.0388,-0.49192 0.0891,-1.05538 0.1118,-1.25215 0.0227,-0.19676 0.0788,-0.76023 0.12465,-1.25214 0.10873,-1.16628 0.34461,-2.32303 0.72951,-3.57756 0.68511,-2.23303 2.47444,-7.58171 2.58314,-7.72157 0.0637,-0.082 0.0759,-0.14906 0.027,-0.14906 -0.0489,0 -0.0383,-0.0671 0.0236,-0.14907 0.0618,-0.082 0.18213,-0.39055 0.26739,-0.6857 0.0853,-0.29515 0.23416,-0.75129 0.33087,-1.01364 0.0967,-0.26235 0.25711,-0.71849 0.35644,-1.01364 0.0993,-0.29515 0.22265,-0.5903 0.27404,-0.65589 0.0514,-0.0656 0.17916,-0.45684 0.28394,-0.86945 0.27028,-1.06443 0.65943,-1.91356 0.91398,-1.99436 0.21595,-0.0685 0.68826,0.12956 0.85721,0.35952 0.0482,0.0656 0.0884,0.083 0.0894,0.0388 0.004,-0.15705 2.85181,1.33252 3.51976,1.84075 0.0656,0.0499 0.26682,0.20137 0.44719,0.33659 0.42332,0.31737 0.41601,0.52804 -0.0729,2.09994 -0.84871,2.72856 -1.28232,4.04552 -1.45112,4.40737 -0.0964,0.20668 -0.17529,0.43278 -0.17529,0.50245 0,0.14022 -1.24884,3.99003 -1.41721,4.36886 -0.0583,0.13117 -0.38375,1.09712 -0.72322,2.14653 -0.33946,1.04942 -0.66127,2.01536 -0.71513,2.14654 -0.21567,0.52532 -0.9736,2.63747 -1.02048,2.84381 -0.19462,0.85668 -0.87416,2.32354 -1.24941,2.69702 -0.39517,0.39329 -3.95966,2.71432 -4.46234,2.90566 -0.21646,0.0824 -0.22263,0.0345 -0.13912,-1.07959 z"
           id="path7081"
           transform="scale(0.26458333)" />
        <path
           style="fill:#099fdf;fill-opacity:1;stroke-width:0.295149;stroke-linecap:round;stroke-linejoin:bevel"
           d="m 417.06658,790.10208 c -0.0382,-0.0995 -0.007,-0.8642 0.0691,-1.69935 0.0762,-0.83514 0.16088,-1.82782 0.18818,-2.20596 0.0273,-0.37814 0.1101,-1.23676 0.18399,-1.90803 0.0739,-0.67128 0.13557,-1.30101 0.13706,-1.39939 0.008,-0.5459 0.35953,-3.03283 0.52214,-3.69681 0.19286,-0.78748 1.88732,-6.18209 2.07889,-6.61849 0.0946,-0.21551 0.70875,-2.02462 1.15376,-3.39868 0.0956,-0.29515 0.21596,-0.61777 0.26748,-0.71695 0.0515,-0.0992 0.1859,-0.50164 0.29861,-0.89439 0.1127,-0.39274 0.27533,-0.82394 0.36138,-0.95822 0.0861,-0.13428 0.24232,-0.5793 0.34726,-0.98894 0.10495,-0.40963 0.32526,-1.03873 0.48959,-1.39799 0.25291,-0.55291 0.34005,-0.64531 0.56761,-0.6018 0.41637,0.0796 0.6862,0.20701 0.6862,0.32396 0,0.0586 0.0784,0.1065 0.17427,0.1065 0.24785,0 2.62432,1.23383 3.39423,1.76223 0.90478,0.62098 0.93807,0.70132 0.68904,1.66312 -0.1797,0.694 -1.35518,4.38099 -1.7404,5.45892 -0.0703,0.19677 -0.29379,0.86756 -0.4966,1.49065 -0.20281,0.62309 -0.39505,1.21339 -0.4272,1.31177 -0.0322,0.0984 -0.0631,0.20571 -0.0687,0.23851 -0.006,0.0328 -0.5887,1.75002 -1.29571,3.81606 -2.4543,7.17202 -2.50166,7.28843 -3.1877,7.8354 -0.81791,0.65213 -3.98943,2.65877 -4.20219,2.65877 -0.0665,0 -0.15213,-0.0814 -0.19031,-0.18089 z"
           id="path7120"
           transform="scale(0.26458333)" />
        <path
           style="fill:#099fdf;fill-opacity:1;stroke-width:0.295149;stroke-linecap:round;stroke-linejoin:bevel"
           d="m 417.07809,789.29558 c 0.0673,-1.33743 0.12969,-2.0818 0.43194,-5.15408 0.42865,-4.35709 0.4631,-4.54473 1.33543,-7.27437 0.27248,-0.85266 0.49822,-1.57711 0.50163,-1.60991 0.003,-0.0328 0.0488,-0.1267 0.10086,-0.20869 0.0521,-0.082 0.0697,-0.14906 0.0393,-0.14906 -0.0304,0 0.2112,-0.76471 0.53696,-1.69934 0.32575,-0.93464 0.78185,-2.28964 1.01355,-3.01112 0.2317,-0.72147 0.49163,-1.47276 0.57763,-1.66952 0.086,-0.19677 0.26513,-0.67974 0.39809,-1.07327 1.06066,-3.13943 1.36851,-3.87569 1.62053,-3.87569 0.2241,0 2.81693,1.29226 3.84518,1.91643 1.20254,0.72996 1.35125,0.89392 1.29935,1.4327 -0.0589,0.61123 -1.66814,5.76022 -1.88836,6.04196 -0.0641,0.082 -0.0765,0.14907 -0.0277,0.14907 0.0488,0 0.022,0.0805 -0.0596,0.17888 -0.0816,0.0984 -0.10848,0.17887 -0.0596,0.17887 0.0489,0 0.022,0.0805 -0.0596,0.17888 -0.0817,0.0984 -0.10848,0.17888 -0.0596,0.17888 0.0489,0 0.022,0.0805 -0.0596,0.17888 -0.0817,0.0984 -0.12171,0.17888 -0.089,0.17888 0.0639,0 -2.23032,6.91587 -2.94727,8.88427 -0.2389,0.65589 -0.55868,1.56816 -0.71064,2.02728 -0.49703,1.50172 -0.87435,2.15455 -1.54115,2.66652 -0.84092,0.64567 -3.52866,2.33968 -4.04138,2.54719 -0.1965,0.0795 -0.20809,0.005 -0.15684,-1.01364 z"
           id="path7159"
           transform="scale(0.26458333)" />
        <path
           style="fill:#099fdf;fill-opacity:1;stroke-width:0.295149;stroke-linecap:round;stroke-linejoin:bevel"
           d="m 417.02471,789.83204 c 4.1e-4,-0.47854 0.22515,-3.19976 0.41579,-5.03466 0.0307,-0.29515 0.13914,-1.39075 0.24106,-2.43466 0.10192,-1.04392 0.24182,-2.14402 0.31089,-2.44467 0.0691,-0.30065 0.14724,-0.65853 0.17371,-0.79529 0.0894,-0.4621 0.78069,-2.71596 0.90318,-2.94484 0.0669,-0.12493 0.13985,-0.36978 0.16218,-0.54411 0.0223,-0.17433 0.10655,-0.47795 0.18713,-0.67472 0.0806,-0.19676 0.16199,-0.43595 0.1809,-0.53153 0.0189,-0.0956 0.0821,-0.2834 0.14051,-0.41738 0.0584,-0.13399 0.36455,-1.02173 0.68039,-1.97276 0.89018,-2.68045 2.55746,-7.39704 2.81383,-7.96007 0.23229,-0.51014 0.41603,-0.60112 0.79762,-0.39493 0.11389,0.0615 0.71688,0.36249 1.33997,0.66878 0.62309,0.30629 1.32071,0.67175 1.55027,0.81212 0.22956,0.14037 0.56252,0.3358 0.73991,0.43429 0.668,0.3709 1.16813,0.85989 1.16813,1.14213 0,0.15442 -0.0872,0.53754 -0.19377,0.85138 -0.10658,0.31383 -0.2058,0.62427 -0.22049,0.68986 -0.0147,0.0656 -0.054,0.19975 -0.0874,0.29813 -0.0333,0.0984 -0.14716,0.47403 -0.25293,0.83477 -0.3208,1.09417 -1.18226,3.74855 -1.25783,3.87569 -0.039,0.0656 -0.0784,0.1595 -0.0876,0.20869 -0.009,0.0492 -0.0301,0.11627 -0.0465,0.14906 -0.0164,0.0328 -0.0432,0.11329 -0.0596,0.17888 -0.0164,0.0656 -0.0406,0.13267 -0.0538,0.14906 -0.0132,0.0164 -0.0401,0.11031 -0.0597,0.2087 -0.0523,0.2625 -2.46074,7.43362 -3.1039,9.24203 -0.30325,0.85265 -0.62028,1.76492 -0.70452,2.02728 -0.29495,0.91859 -0.82383,1.83682 -1.25148,2.17277 -0.82264,0.64626 -3.76745,2.52564 -4.21765,2.69172 -0.18018,0.0665 -0.20863,1.1e-4 -0.20821,-0.48572 z"
           id="path7198"
           transform="scale(0.26458333)" />
        <path
           style="fill:#099fdf;fill-opacity:1;stroke-width:0.295149;stroke-linecap:round;stroke-linejoin:bevel"
           d="m 417.06255,790.21082 c -0.14294,-0.37248 0.64715,-8.91574 0.97486,-10.54127 0.24949,-1.23751 2.05328,-6.85748 3.42565,-10.67306 0.2595,-0.72147 0.5136,-1.47984 0.56468,-1.68527 0.0511,-0.20543 0.13937,-0.44691 0.19621,-0.53664 0.0568,-0.0897 0.10479,-0.18996 0.10656,-0.22275 0.006,-0.10328 0.67313,-1.95052 0.8452,-2.3388 0.34079,-0.76901 0.38084,-0.76586 2.23348,0.1753 2.78956,1.41713 3.42099,1.85526 3.42099,2.37369 0,0.3573 -0.006,0.37592 -2.03173,6.58717 -1.78999,5.48774 -1.93786,5.93187 -2.52123,7.5725 -0.25654,0.72148 -0.67303,1.9289 -0.92554,2.68317 -0.95875,2.86385 -1.3015,3.58008 -1.94236,4.05889 -0.59436,0.44406 -1.16906,0.83044 -1.2352,0.83044 -0.0326,0 -0.1653,0.0987 -0.29484,0.21943 -0.12954,0.12069 -0.3822,0.29237 -0.56146,0.38152 -0.17926,0.0892 -0.48692,0.27664 -0.68369,0.41664 -0.19677,0.14 -0.61243,0.40259 -0.92371,0.58354 -0.52218,0.30354 -0.57229,0.31248 -0.64787,0.1155 z"
           id="path7237"
           transform="scale(0.26458333)" />
        <path
           style="fill:#099fdf;fill-opacity:1;stroke-width:1.18059;stroke-linecap:round;stroke-linejoin:bevel"
           d="m 618.29442,809.1042 c -3.46125,-1.48096 -6.29318,-2.83694 -6.29318,-3.01329 0,-0.30809 28.37872,-16.16569 28.93008,-16.16569 0.14811,0 2.70208,1.33034 5.67548,2.95632 4.79638,2.62286 5.30953,3.02403 4.54931,3.55651 -1.0894,0.76304 -23.16145,13.60291 -25.11031,14.60729 -1.425,0.73441 -1.60142,0.69023 -7.75138,-1.94114 z"
           id="path7276"
           transform="scale(0.26458333)" />
        <path
           style="fill:#099fdf;fill-opacity:0.997669;stroke-width:1.18059;stroke-linecap:round;stroke-linejoin:bevel"
           d="m 620.58738,809.69588 c -2.23001,-0.92326 -4.85951,-2.01623 -5.84334,-2.42881 -0.98383,-0.41259 -1.78878,-0.92074 -1.78878,-1.12923 0,-0.54923 26.93521,-15.74176 27.88619,-15.72892 0.76641,0.0103 9.88371,5.01012 9.96446,5.46435 0.0393,0.22117 -2.07505,1.67991 -4.6986,3.24163 -6.37351,3.79398 -21.10859,12.27773 -21.30719,12.26765 -0.087,-0.004 -1.98272,-0.76341 -4.21274,-1.68667 z"
           id="path7315"
           transform="scale(0.26458333)" />
      </g>
    </g>
  </g>
</svg>
